# xmcd
#
# Track frame offsets:
#	150
#	8105
#	17310
#	28760
#	38137
#	49260
#	58400
#	69807
#	80970
#	89170
#	98217
#	108440
#	117637
#	125360
#	134597
#	146242
#	158067
#	168392
#	177280
#	186325
#	194905
#	204600
#	214197
#	225470
#
# Disc length: 3166 seconds
#
# Revision: 1
# Processed by: cddbd v1.5.2PL0 Copyright (c) Steve Scherf et al.
# Submitted via: dBpowerAMP V4.0
#
DISCID=6b0c5c18
DTITLE=Fats Domino - Fats Domino - The Originals - Vol.  1
DYEAR=1990
DGENRE=R&B
TTITLE0=Did You Ever See A Dream Walking
TTITLE1=Rockin' Bicycle
TTITLE2=Before I Grow Too Old
TTITLE3=Ain't Gonna Do It
TTITLE4=Bad Luck And Trouble
TTITLE5=Hold Hands
TTITLE6=Trouble In Mind
TTITLE7=Coquette
TTITLE8=What A Party
TTITLE9=I Just Cry
TTITLE10=I've Been Calling
TTITLE11=Tell Me That You Love Me
TTITLE12=Twistin' The Spots
TTITLE13=(The Twist) Set Me Free
TTITLE14=I Know
TTITLE15=Every Night (About This Time)
TTITLE16=Town Talk
TTITLE17=Wait And See
TTITLE18=Domino Stomp (Twistin' The Stomp)
TTITLE19=Don't Deceive Me
TTITLE20=A Long Way From Home
TTITLE21=The Girl I Love
TTITLE22=Do You Know What It Means To Miss New Orleans
TTITLE23=South Of The Border
EXTD=
EXTT0=
EXTT1=
EXTT2=
EXTT3=
EXTT4=
EXTT5=
EXTT6=
EXTT7=
EXTT8=
EXTT9=
EXTT10=
EXTT11=
EXTT12=
EXTT13=
EXTT14=
EXTT15=
EXTT16=
EXTT17=
EXTT18=
EXTT19=
EXTT20=
EXTT21=
EXTT22=
EXTT23=
PLAYORDER=
